<svg width="167" height="166" viewBox="0 0 167 166" fill="none" xmlns="http://www.w3.org/2000/svg">
<path d="M102.327 165.676C83.6071 165.678 65.0303 165.685 46.4535 165.678C36.6122 165.674 27.8497 159.271 24.8527 149.927C23.8624 146.839 25.3758 144.54 28.6446 144.364C30.942 144.24 33.2505 144.315 35.5541 144.313C41.1908 144.309 46.8276 144.315 52.4643 144.307C53.0865 144.307 53.7295 144.397 54.4047 144.072C53.8704 142.176 53.2424 140.339 52.8397 138.455C50.4913 127.465 53.4176 117.979 61.2373 109.932C61.745 109.409 62.3161 108.935 62.9101 108.511C64.1211 107.645 65.5244 107.758 66.3529 108.733C67.1889 109.716 66.9981 111.044 65.8389 112.087C61.677 115.832 58.9909 120.452 57.7839 125.867C55.9379 134.149 58.0158 141.626 63.0955 148.252C68.5587 155.378 75.9947 159.141 84.9784 159.332C99.3535 159.637 110.82 149.893 113.785 137.774C116.207 127.879 114.623 118.701 108.271 110.633C104.071 105.297 98.4586 102.516 91.4488 102.561C77.186 102.653 62.9221 102.583 48.6586 102.583C34.0312 102.583 22.0021 92.6071 19.464 78.3356C19.2435 77.0955 19.1106 75.8225 19.1083 74.5644C19.0822 60.6961 19.0447 46.8275 19.1035 32.9593C19.149 22.2436 26.7961 13.2867 37.3145 11.5228C38.8027 11.2733 40.3371 11.2749 41.8523 11.2099C42.8748 11.166 43.3378 11.6746 43.3378 12.7314C43.3377 14.1806 43.164 15.6418 43.6534 17.0715C44.7941 20.4036 48.1924 22.599 51.5325 22.1125C55.1987 21.5786 57.8203 18.686 57.9415 15.0412C58.0698 11.1792 58.0698 11.1787 62.0433 11.1774C70.2288 11.1747 78.4144 11.1706 86.5999 11.1713C89.5179 11.1716 89.5179 11.1772 89.5233 14.0511C89.5305 17.8271 91.557 20.7973 94.8129 21.804C99.5438 23.2667 104.205 19.884 104.565 14.7263C104.572 14.6292 104.571 14.5317 104.574 14.4345C104.698 11.0381 104.748 11.0668 108.167 11.1911C114.391 11.4174 119.31 13.9103 122.679 19.1853C124.934 22.7178 125.321 26.66 125.031 30.7025C124.923 32.2154 123.844 33.1653 122.318 33.3153C121.589 33.3869 120.849 33.3561 120.114 33.3563C96.7334 33.3647 73.3531 33.366 49.9728 33.382C44.7759 33.3855 40.7239 36.2473 39.4326 40.8334C39.1722 41.7584 39.0232 42.7472 39.0232 43.7066C39.0231 53.8269 39.1426 63.9479 39.0584 74.0673C39.0184 78.8817 42.7065 83.494 47.4791 84.4964C48.3078 84.6705 49.1347 84.6584 49.9654 84.6587C66.0424 84.6647 82.1194 84.6584 98.1964 84.6697C112.452 84.6797 125.113 94.9434 128.015 108.825C128.354 110.442 128.647 112.06 128.643 113.729C128.618 122.39 128.976 131.07 128.536 139.709C127.858 153.017 116.807 165.178 102.327 165.676Z" fill="#65D6AD"/>
<path d="M49.8167 40.7749C53.7014 40.7068 57.4655 40.6491 61.2292 40.6675C62.6294 40.6744 63.7494 41.5686 63.7865 42.9871C63.8828 46.6685 63.8552 50.3581 63.7091 54.0378C63.6585 55.3127 62.5229 55.9438 61.3042 55.9647C57.7351 56.026 54.1636 56.0334 50.5946 55.9749C49.0102 55.9489 48.0517 54.9426 48.0299 53.3623C47.9835 50.0127 48.0138 46.6621 48.012 43.3118C48.0114 42.1056 48.6146 41.3019 49.8167 40.7749Z" fill="#85987F"/>
<path d="M73.8128 40.7475C77.6975 40.6795 81.4616 40.6218 85.2253 40.6402C86.6255 40.647 87.7455 41.5413 87.7826 42.9598C87.8789 46.6412 87.8513 50.3308 87.7052 54.0105C87.6546 55.2853 86.519 55.9164 85.3003 55.9374C81.7312 55.9987 78.1597 56.0061 74.5907 55.9475C73.0063 55.9215 72.0478 54.9153 72.026 53.335C71.9796 49.9854 72.0099 46.6347 72.0081 43.2845C72.0075 42.0783 72.6107 41.2746 73.8128 40.7475Z" fill="#85987F"/>
<path d="M97.8128 40.7475C101.698 40.6795 105.462 40.6218 109.225 40.6402C110.626 40.647 111.745 41.5413 111.783 42.9598C111.879 46.6412 111.851 50.3308 111.705 54.0105C111.655 55.2853 110.519 55.9164 109.3 55.9374C105.731 55.9987 102.16 56.0061 98.5907 55.9475C97.0063 55.9215 96.0478 54.9153 96.026 53.335C95.9796 49.9854 96.0099 46.6347 96.0081 43.2845C96.0075 42.0783 96.6107 41.2746 97.8128 40.7475Z" fill="#E55E1C"/>
<path d="M97.8128 61.7475C101.698 61.6795 105.462 61.6218 109.225 61.6402C110.626 61.647 111.745 62.5413 111.783 63.9598C111.879 67.6412 111.851 71.3308 111.705 75.0105C111.655 76.2853 110.519 76.9164 109.3 76.9374C105.731 76.9987 102.16 77.0061 98.5907 76.9475C97.0063 76.9215 96.0478 75.9153 96.026 74.335C95.9796 70.9854 96.0099 67.6347 96.0081 64.2845C96.0075 63.0783 96.6107 62.2746 97.8128 61.7475Z" fill="#85987F"/>
<path d="M73.8128 61.7475C77.6975 61.6795 81.4616 61.6218 85.2253 61.6402C86.6255 61.647 87.7455 62.5413 87.7826 63.9598C87.8789 67.6412 87.8513 71.3308 87.7052 75.0105C87.6546 76.2853 86.519 76.9164 85.3003 76.9374C81.7312 76.9987 78.1597 77.0061 74.5907 76.9475C73.0063 76.9215 72.0478 75.9153 72.026 74.335C71.9796 70.9854 72.0099 67.6347 72.0081 64.2845C72.0075 63.0783 72.6107 62.2746 73.8128 61.7475Z" fill="#85987F"/>
<path d="M49.8128 61.7475C53.6975 61.6795 57.4616 61.6218 61.2253 61.6402C62.6255 61.647 63.7455 62.5413 63.7826 63.9598C63.8789 67.6412 63.8513 71.3308 63.7052 75.0105C63.6546 76.2853 62.519 76.9164 61.3003 76.9374C57.7312 76.9987 54.1597 77.0061 50.5907 76.9475C49.0063 76.9215 48.0478 75.9153 48.026 74.335C47.9796 70.9854 48.0099 67.6347 48.0081 64.2845C48.0075 63.0783 48.6107 62.2746 49.8128 61.7475Z" fill="#85987F"/>
<path d="M90.1455 129.646C90.1634 130.952 90.4265 132.147 89.8858 133.333C89.5634 134.04 90.188 134.508 90.6194 134.951C92.561 136.942 94.5198 138.916 96.4787 140.891C97.1059 141.523 97.4843 142.212 97.0984 143.115C96.5528 144.391 95.1729 144.69 94.1168 143.673C92.1478 141.779 90.1804 139.876 88.3246 137.874C87.3858 136.861 86.4408 136.416 85.0223 136.487C82.5059 136.614 80.3816 134.832 79.96 132.506C79.4878 129.901 80.7928 127.542 83.1944 126.625C84.2436 126.224 85.3294 126.194 86.3702 126.492C87.212 126.733 87.7321 126.496 88.3054 125.919C91.641 122.561 95.006 119.232 98.3635 115.895C98.7787 115.483 99.1897 115.063 99.6353 114.684C100.492 113.955 101.464 113.843 102.284 114.623C103.117 115.415 103.05 116.428 102.27 117.23C100.027 119.539 97.7167 121.782 95.4575 124.075C93.6796 125.879 91.7823 127.571 90.1455 129.646Z" fill="#65D6AD"/>
<path d="M93.2358 16.5496C92.9007 15.859 92.8339 15.2401 92.8351 14.5995C92.8412 11.1998 92.8183 7.79987 92.8387 4.40021C92.8546 1.76781 94.6038 -0.0121301 97.0881 0.0159526C99.5689 0.0439862 101.254 1.87166 101.323 4.44787C101.415 7.84263 101.458 11.2356 101.306 14.6279C101.208 16.828 100.088 18.3316 98.297 18.7728C96.2482 19.2774 94.5385 18.5553 93.2358 16.5496Z" fill="#65D6AD"/>
<path d="M47.1377 17.1284C46.6899 16.3474 46.4054 15.6235 46.4035 14.8276C46.395 11.2824 46.3213 7.73516 46.4202 4.19273C46.5167 0.735159 50.066 -1.10533 52.9663 0.712663C54.2309 1.50533 54.8052 2.68009 54.8047 4.14826C54.8036 7.54776 54.8054 10.9473 54.7984 14.3468C54.7937 16.5998 53.9937 17.9053 52.1925 18.6331C50.4858 19.3228 48.6747 18.8103 47.1377 17.1284Z" fill="#65D6AD"/>
<circle cx="85" cy="109.637" r="2" fill="#809779"/>
<circle cx="108" cy="131.637" r="2" fill="#809779"/>
<circle cx="85" cy="153.637" r="2" fill="#809779"/>
<circle cx="62" cy="131.637" r="2" fill="#809779"/>
</svg>
