<svg width="167" height="219" viewBox="0 0 167 219" fill="none" xmlns="http://www.w3.org/2000/svg">
<path d="M102.327 165.676C83.6071 165.678 65.0303 165.685 46.4535 165.678C36.6122 165.674 27.8497 159.271 24.8527 149.927C23.8624 146.839 25.3758 144.54 28.6446 144.364C30.942 144.24 33.2505 144.315 35.5541 144.313C41.1908 144.309 46.8276 144.315 52.4643 144.307C53.0865 144.307 53.7295 144.397 54.4047 144.072C53.8704 142.176 53.2424 140.339 52.8397 138.455C50.4913 127.465 53.4176 117.979 61.2373 109.932C61.745 109.409 62.3161 108.935 62.9101 108.511C64.1211 107.645 65.5244 107.758 66.3529 108.733C67.1889 109.716 66.9981 111.044 65.8389 112.087C61.677 115.832 58.9909 120.452 57.7839 125.867C55.9379 134.149 58.0158 141.626 63.0955 148.252C68.5587 155.378 75.9947 159.141 84.9784 159.332C99.3535 159.637 110.82 149.893 113.785 137.774C116.207 127.879 114.623 118.701 108.271 110.633C104.071 105.297 98.4586 102.516 91.4488 102.561C77.186 102.653 62.9221 102.583 48.6586 102.583C34.0312 102.583 22.0021 92.6071 19.464 78.3356C19.2435 77.0955 19.1106 75.8225 19.1083 74.5644C19.0822 60.6961 19.0447 46.8275 19.1035 32.9593C19.149 22.2436 26.7961 13.2867 37.3145 11.5228C38.8027 11.2733 40.3371 11.2749 41.8523 11.2099C42.8748 11.166 43.3378 11.6746 43.3378 12.7314C43.3377 14.1806 43.164 15.6418 43.6534 17.0715C44.7941 20.4036 48.1924 22.599 51.5325 22.1125C55.1987 21.5786 57.8203 18.686 57.9415 15.0412C58.0698 11.1792 58.0698 11.1787 62.0433 11.1774C70.2288 11.1747 78.4144 11.1706 86.5999 11.1713C89.5179 11.1716 89.5179 11.1772 89.5233 14.0511C89.5305 17.8271 91.557 20.7973 94.8129 21.804C99.5438 23.2667 104.205 19.884 104.565 14.7263C104.572 14.6292 104.571 14.5317 104.574 14.4345C104.698 11.0381 104.748 11.0668 108.167 11.1911C114.391 11.4174 119.31 13.9103 122.679 19.1853C124.934 22.7178 125.321 26.66 125.031 30.7025C124.923 32.2154 123.844 33.1653 122.318 33.3153C121.589 33.3869 120.849 33.3561 120.114 33.3563C96.7334 33.3647 73.3531 33.366 49.9728 33.382C44.7759 33.3855 40.7239 36.2473 39.4326 40.8334C39.1722 41.7584 39.0232 42.7472 39.0232 43.7066C39.0231 53.8269 39.1426 63.9479 39.0584 74.0673C39.0184 78.8817 42.7065 83.494 47.4791 84.4964C48.3078 84.6705 49.1347 84.6584 49.9654 84.6587C66.0424 84.6647 82.1194 84.6584 98.1964 84.6697C112.452 84.6797 125.113 94.9434 128.015 108.825C128.354 110.442 128.647 112.06 128.643 113.729C128.618 122.39 128.976 131.07 128.536 139.709C127.858 153.017 116.807 165.178 102.327 165.676Z" fill="#65D6AD"/>
<path d="M49.8167 40.7749C53.7014 40.7068 57.4655 40.6491 61.2292 40.6675C62.6294 40.6744 63.7494 41.5686 63.7865 42.9871C63.8828 46.6685 63.8552 50.3581 63.7091 54.0378C63.6585 55.3127 62.5229 55.9438 61.3042 55.9647C57.7351 56.026 54.1636 56.0334 50.5946 55.9749C49.0102 55.9489 48.0517 54.9426 48.0299 53.3623C47.9835 50.0127 48.0138 46.6621 48.012 43.3118C48.0114 42.1056 48.6146 41.3019 49.8167 40.7749Z" fill="#85987F"/>
<path d="M73.8128 40.7475C77.6975 40.6795 81.4616 40.6218 85.2253 40.6402C86.6255 40.647 87.7455 41.5413 87.7826 42.9598C87.8789 46.6412 87.8513 50.3308 87.7052 54.0105C87.6546 55.2853 86.519 55.9164 85.3003 55.9374C81.7312 55.9987 78.1597 56.0061 74.5907 55.9475C73.0063 55.9215 72.0478 54.9153 72.026 53.335C71.9796 49.9854 72.0099 46.6347 72.0081 43.2845C72.0075 42.0783 72.6107 41.2746 73.8128 40.7475Z" fill="#85987F"/>
<path d="M97.8128 40.7475C101.698 40.6795 105.462 40.6218 109.225 40.6402C110.626 40.647 111.745 41.5413 111.783 42.9598C111.879 46.6412 111.851 50.3308 111.705 54.0105C111.655 55.2853 110.519 55.9164 109.3 55.9374C105.731 55.9987 102.16 56.0061 98.5907 55.9475C97.0063 55.9215 96.0478 54.9153 96.026 53.335C95.9796 49.9854 96.0099 46.6347 96.0081 43.2845C96.0075 42.0783 96.6107 41.2746 97.8128 40.7475Z" fill="#E55E1C"/>
<path d="M97.8128 61.7475C101.698 61.6795 105.462 61.6218 109.225 61.6402C110.626 61.647 111.745 62.5413 111.783 63.9598C111.879 67.6412 111.851 71.3308 111.705 75.0105C111.655 76.2853 110.519 76.9164 109.3 76.9374C105.731 76.9987 102.16 77.0061 98.5907 76.9475C97.0063 76.9215 96.0478 75.9153 96.026 74.335C95.9796 70.9854 96.0099 67.6347 96.0081 64.2845C96.0075 63.0783 96.6107 62.2746 97.8128 61.7475Z" fill="#85987F"/>
<path d="M73.8128 61.7475C77.6975 61.6795 81.4616 61.6218 85.2253 61.6402C86.6255 61.647 87.7455 62.5413 87.7826 63.9598C87.8789 67.6412 87.8513 71.3308 87.7052 75.0105C87.6546 76.2853 86.519 76.9164 85.3003 76.9374C81.7312 76.9987 78.1597 77.0061 74.5907 76.9475C73.0063 76.9215 72.0478 75.9153 72.026 74.335C71.9796 70.9854 72.0099 67.6347 72.0081 64.2845C72.0075 63.0783 72.6107 62.2746 73.8128 61.7475Z" fill="#85987F"/>
<path d="M49.8128 61.7475C53.6975 61.6795 57.4616 61.6218 61.2253 61.6402C62.6255 61.647 63.7455 62.5413 63.7826 63.9598C63.8789 67.6412 63.8513 71.3308 63.7052 75.0105C63.6546 76.2853 62.519 76.9164 61.3003 76.9374C57.7312 76.9987 54.1597 77.0061 50.5907 76.9475C49.0063 76.9215 48.0478 75.9153 48.026 74.335C47.9796 70.9854 48.0099 67.6347 48.0081 64.2845C48.0075 63.0783 48.6107 62.2746 49.8128 61.7475Z" fill="#85987F"/>
<path d="M90.1455 129.646C90.1634 130.952 90.4265 132.147 89.8858 133.333C89.5634 134.04 90.188 134.508 90.6194 134.951C92.561 136.942 94.5198 138.916 96.4787 140.891C97.1059 141.523 97.4843 142.212 97.0984 143.115C96.5528 144.391 95.1729 144.69 94.1168 143.673C92.1478 141.779 90.1804 139.876 88.3246 137.874C87.3858 136.861 86.4408 136.416 85.0223 136.487C82.5059 136.614 80.3816 134.832 79.96 132.506C79.4878 129.901 80.7928 127.542 83.1944 126.625C84.2436 126.224 85.3294 126.194 86.3702 126.492C87.212 126.733 87.7321 126.496 88.3054 125.919C91.641 122.561 95.006 119.232 98.3635 115.895C98.7787 115.483 99.1897 115.063 99.6353 114.684C100.492 113.955 101.464 113.843 102.284 114.623C103.117 115.415 103.05 116.428 102.27 117.23C100.027 119.539 97.7167 121.782 95.4575 124.075C93.6796 125.879 91.7823 127.571 90.1455 129.646Z" fill="#65D6AD"/>
<path d="M93.2358 16.5496C92.9007 15.859 92.8339 15.2401 92.8351 14.5995C92.8412 11.1998 92.8183 7.79987 92.8387 4.40021C92.8546 1.76781 94.6038 -0.0121301 97.0881 0.0159526C99.5689 0.0439862 101.254 1.87166 101.323 4.44787C101.415 7.84263 101.458 11.2356 101.306 14.6279C101.208 16.828 100.088 18.3316 98.297 18.7728C96.2482 19.2774 94.5385 18.5553 93.2358 16.5496Z" fill="#65D6AD"/>
<path d="M47.1377 17.1284C46.6899 16.3474 46.4054 15.6235 46.4035 14.8276C46.395 11.2824 46.3213 7.73516 46.4202 4.19273C46.5167 0.735159 50.066 -1.10533 52.9663 0.712663C54.2309 1.50533 54.8052 2.68009 54.8047 4.14826C54.8036 7.54776 54.8054 10.9473 54.7984 14.3468C54.7937 16.5998 53.9937 17.9053 52.1925 18.6331C50.4858 19.3228 48.6747 18.8103 47.1377 17.1284Z" fill="#65D6AD"/>
<circle cx="85" cy="109.637" r="2" fill="#809779"/>
<circle cx="108" cy="131.637" r="2" fill="#809779"/>
<circle cx="85" cy="153.637" r="2" fill="#809779"/>
<circle cx="62" cy="131.637" r="2" fill="#809779"/>
<path d="M0.84 217.637V212.037H1.64V217.637H0.84ZM5.31656 217.637V212.037H5.97256L9.67656 216.637H9.33256V212.037H10.1326V217.637H9.47656L5.77256 213.037H6.11656V217.637H5.31656ZM15.4408 217.701C15.0141 217.701 14.6061 217.637 14.2168 217.509C13.8274 217.375 13.5208 217.205 13.2968 216.997L13.5928 216.373C13.8061 216.559 14.0781 216.714 14.4088 216.837C14.7394 216.959 15.0834 217.021 15.4408 217.021C15.7661 217.021 16.0301 216.983 16.2328 216.909C16.4354 216.834 16.5848 216.733 16.6808 216.605C16.7768 216.471 16.8248 216.322 16.8248 216.157C16.8248 215.965 16.7608 215.81 16.6328 215.693C16.5101 215.575 16.3474 215.482 16.1448 215.413C15.9474 215.338 15.7288 215.274 15.4888 215.221C15.2488 215.167 15.0061 215.106 14.7608 215.037C14.5208 214.962 14.2994 214.869 14.0968 214.757C13.8994 214.645 13.7394 214.495 13.6168 214.309C13.4941 214.117 13.4328 213.871 13.4328 213.573C13.4328 213.285 13.5074 213.021 13.6568 212.781C13.8114 212.535 14.0461 212.341 14.3608 212.197C14.6808 212.047 15.0861 211.973 15.5768 211.973C15.9021 211.973 16.2248 212.015 16.5448 212.101C16.8648 212.186 17.1421 212.309 17.3767 212.469L17.1128 213.109C16.8728 212.949 16.6194 212.834 16.3528 212.765C16.0861 212.69 15.8274 212.653 15.5768 212.653C15.2621 212.653 15.0034 212.693 14.8008 212.773C14.5981 212.853 14.4488 212.959 14.3528 213.093C14.2621 213.226 14.2168 213.375 14.2168 213.541C14.2168 213.738 14.2781 213.895 14.4008 214.013C14.5288 214.13 14.6914 214.223 14.8888 214.293C15.0914 214.362 15.3128 214.426 15.5528 214.485C15.7928 214.538 16.0328 214.599 16.2728 214.669C16.5181 214.738 16.7394 214.829 16.9368 214.941C17.1394 215.053 17.3021 215.202 17.4248 215.389C17.5474 215.575 17.6088 215.815 17.6088 216.109C17.6088 216.391 17.5314 216.655 17.3767 216.901C17.2221 217.141 16.9821 217.335 16.6568 217.485C16.3368 217.629 15.9314 217.701 15.4408 217.701ZM21.8114 217.637V212.733H19.8914V212.037H24.5234V212.733H22.6034V217.637H21.8114ZM27.3947 217.637V212.037H28.1947V217.637H27.3947ZM32.9833 217.637V212.733H31.0633V212.037H35.6953V212.733H33.7753V217.637H32.9833ZM40.785 217.701C40.049 217.701 39.4703 217.49 39.049 217.069C38.6277 216.647 38.417 216.031 38.417 215.221V212.037H39.217V215.189C39.217 215.813 39.353 216.269 39.625 216.557C39.9023 216.845 40.2917 216.989 40.793 216.989C41.2997 216.989 41.689 216.845 41.961 216.557C42.2383 216.269 42.377 215.813 42.377 215.189V212.037H43.153V215.221C43.153 216.031 42.9423 216.647 42.521 217.069C42.105 217.49 41.5263 217.701 40.785 217.701ZM47.8036 217.637V212.733H45.8836V212.037H50.5156V212.733H48.5956V217.637H47.8036ZM53.3869 217.637V212.037H54.1869V217.637H53.3869ZM60.3914 217.701C59.9648 217.701 59.5674 217.629 59.1994 217.485C58.8368 217.341 58.5221 217.141 58.2554 216.885C57.9888 216.623 57.7808 216.319 57.6314 215.973C57.4821 215.626 57.4074 215.247 57.4074 214.837C57.4074 214.426 57.4821 214.047 57.6314 213.701C57.7808 213.354 57.9888 213.053 58.2554 212.797C58.5221 212.535 58.8368 212.333 59.1994 212.189C59.5621 212.045 59.9594 211.973 60.3914 211.973C60.8181 211.973 61.2101 212.045 61.5674 212.189C61.9301 212.327 62.2448 212.527 62.5114 212.789C62.7834 213.045 62.9914 213.346 63.1354 213.693C63.2848 214.039 63.3594 214.421 63.3594 214.837C63.3594 215.253 63.2848 215.634 63.1354 215.981C62.9914 216.327 62.7834 216.631 62.5114 216.893C62.2448 217.149 61.9301 217.349 61.5674 217.493C61.2101 217.631 60.8181 217.701 60.3914 217.701ZM60.3914 216.989C60.7008 216.989 60.9861 216.935 61.2474 216.829C61.5141 216.722 61.7434 216.573 61.9354 216.381C62.1328 216.183 62.2848 215.954 62.3914 215.693C62.5034 215.431 62.5594 215.146 62.5594 214.837C62.5594 214.527 62.5034 214.242 62.3914 213.981C62.2848 213.719 62.1328 213.493 61.9354 213.301C61.7434 213.103 61.5141 212.951 61.2474 212.845C60.9861 212.738 60.7008 212.685 60.3914 212.685C60.0768 212.685 59.7861 212.738 59.5194 212.845C59.2581 212.951 59.0288 213.103 58.8314 213.301C58.6341 213.493 58.4794 213.719 58.3674 213.981C58.2608 214.242 58.2074 214.527 58.2074 214.837C58.2074 215.146 58.2608 215.431 58.3674 215.693C58.4794 215.954 58.6341 216.183 58.8314 216.381C59.0288 216.573 59.2581 216.722 59.5194 216.829C59.7861 216.935 60.0768 216.989 60.3914 216.989ZM66.5822 217.637V212.037H67.2382L70.9422 216.637H70.5982V212.037H71.3982V217.637H70.7422L67.0382 213.037H67.3822V217.637H66.5822ZM74.2264 217.637L76.7624 212.037H77.5544L80.0984 217.637H79.2584L76.9944 212.485H77.3144L75.0504 217.637H74.2264ZM75.3064 216.237L75.5224 215.597H78.6744L78.9064 216.237H75.3064ZM82.9338 217.637V212.037H83.7338V216.941H86.7658V217.637H82.9338ZM95.4642 217.701C95.0375 217.701 94.6295 217.637 94.2402 217.509C93.8509 217.375 93.5442 217.205 93.3202 216.997L93.6162 216.373C93.8295 216.559 94.1015 216.714 94.4322 216.837C94.7629 216.959 95.1069 217.021 95.4642 217.021C95.7895 217.021 96.0535 216.983 96.2562 216.909C96.4589 216.834 96.6082 216.733 96.7042 216.605C96.8002 216.471 96.8482 216.322 96.8482 216.157C96.8482 215.965 96.7842 215.81 96.6562 215.693C96.5335 215.575 96.3709 215.482 96.1682 215.413C95.9709 215.338 95.7522 215.274 95.5122 215.221C95.2722 215.167 95.0295 215.106 94.7842 215.037C94.5442 214.962 94.3229 214.869 94.1202 214.757C93.9229 214.645 93.7629 214.495 93.6402 214.309C93.5175 214.117 93.4562 213.871 93.4562 213.573C93.4562 213.285 93.5309 213.021 93.6802 212.781C93.8349 212.535 94.0695 212.341 94.3842 212.197C94.7042 212.047 95.1095 211.973 95.6002 211.973C95.9255 211.973 96.2482 212.015 96.5682 212.101C96.8882 212.186 97.1655 212.309 97.4002 212.469L97.1362 213.109C96.8962 212.949 96.6429 212.834 96.3762 212.765C96.1095 212.69 95.8509 212.653 95.6002 212.653C95.2855 212.653 95.0269 212.693 94.8242 212.773C94.6215 212.853 94.4722 212.959 94.3762 213.093C94.2855 213.226 94.2402 213.375 94.2402 213.541C94.2402 213.738 94.3015 213.895 94.4242 214.013C94.5522 214.13 94.7149 214.223 94.9122 214.293C95.1149 214.362 95.3362 214.426 95.5762 214.485C95.8162 214.538 96.0562 214.599 96.2962 214.669C96.5415 214.738 96.7629 214.829 96.9602 214.941C97.1629 215.053 97.3255 215.202 97.4482 215.389C97.5709 215.575 97.6322 215.815 97.6322 216.109C97.6322 216.391 97.5549 216.655 97.4002 216.901C97.2455 217.141 97.0055 217.335 96.6802 217.485C96.3602 217.629 95.9549 217.701 95.4642 217.701ZM103.305 217.701C102.878 217.701 102.484 217.631 102.121 217.493C101.764 217.349 101.452 217.149 101.185 216.893C100.924 216.631 100.718 216.327 100.569 215.981C100.42 215.634 100.345 215.253 100.345 214.837C100.345 214.421 100.42 214.039 100.569 213.693C100.718 213.346 100.926 213.045 101.193 212.789C101.46 212.527 101.772 212.327 102.129 212.189C102.492 212.045 102.886 211.973 103.313 211.973C103.745 211.973 104.142 212.047 104.505 212.197C104.873 212.341 105.185 212.557 105.441 212.845L104.921 213.349C104.708 213.125 104.468 212.959 104.201 212.853C103.934 212.741 103.649 212.685 103.345 212.685C103.03 212.685 102.737 212.738 102.465 212.845C102.198 212.951 101.966 213.101 101.769 213.293C101.572 213.485 101.417 213.714 101.305 213.981C101.198 214.242 101.145 214.527 101.145 214.837C101.145 215.146 101.198 215.434 101.305 215.701C101.417 215.962 101.572 216.189 101.769 216.381C101.966 216.573 102.198 216.722 102.465 216.829C102.737 216.935 103.03 216.989 103.345 216.989C103.649 216.989 103.934 216.935 104.201 216.829C104.468 216.717 104.708 216.546 104.921 216.317L105.441 216.821C105.185 217.109 104.873 217.327 104.505 217.477C104.142 217.626 103.742 217.701 103.305 217.701ZM112.52 217.637V212.037H113.32V217.637H112.52ZM108.504 217.637V212.037H109.304V217.637H108.504ZM109.224 215.141V214.445H112.592V215.141H109.224ZM116.996 217.637V212.037H120.948V212.733H117.796V216.941H121.06V217.637H116.996ZM117.724 215.133V214.453H120.604V215.133H117.724ZM124.356 217.637V212.037H126.716C127.313 212.037 127.838 212.154 128.292 212.389C128.75 212.623 129.105 212.951 129.356 213.373C129.612 213.794 129.74 214.282 129.74 214.837C129.74 215.391 129.612 215.879 129.356 216.301C129.105 216.722 128.75 217.05 128.292 217.285C127.838 217.519 127.313 217.637 126.716 217.637H124.356ZM125.156 216.941H126.668C127.132 216.941 127.532 216.853 127.868 216.677C128.209 216.501 128.473 216.255 128.66 215.941C128.846 215.621 128.94 215.253 128.94 214.837C128.94 214.415 128.846 214.047 128.66 213.733C128.473 213.418 128.209 213.173 127.868 212.997C127.532 212.821 127.132 212.733 126.668 212.733H125.156V216.941ZM135.285 217.701C134.549 217.701 133.97 217.49 133.549 217.069C133.128 216.647 132.917 216.031 132.917 215.221V212.037H133.717V215.189C133.717 215.813 133.853 216.269 134.125 216.557C134.402 216.845 134.792 216.989 135.293 216.989C135.8 216.989 136.189 216.845 136.461 216.557C136.738 216.269 136.877 215.813 136.877 215.189V212.037H137.653V215.221C137.653 216.031 137.442 216.647 137.021 217.069C136.605 217.49 136.026 217.701 135.285 217.701ZM141.293 217.637V212.037H142.093V216.941H145.125V217.637H141.293ZM148.043 217.637V212.037H148.843V217.637H148.043ZM152.52 217.637V212.037H153.176L156.88 216.637H156.536V212.037H157.336V217.637H156.68L152.976 213.037H153.32V217.637H152.52ZM163.54 217.701C163.108 217.701 162.711 217.631 162.348 217.493C161.985 217.349 161.671 217.149 161.404 216.893C161.137 216.631 160.929 216.327 160.78 215.981C160.631 215.634 160.556 215.253 160.556 214.837C160.556 214.421 160.631 214.039 160.78 213.693C160.929 213.346 161.137 213.045 161.404 212.789C161.676 212.527 161.993 212.327 162.356 212.189C162.719 212.045 163.119 211.973 163.556 211.973C163.999 211.973 164.404 212.045 164.772 212.189C165.14 212.333 165.452 212.549 165.708 212.837L165.212 213.333C164.983 213.109 164.732 212.946 164.46 212.845C164.193 212.738 163.903 212.685 163.588 212.685C163.268 212.685 162.969 212.738 162.692 212.845C162.42 212.951 162.183 213.101 161.98 213.293C161.783 213.485 161.628 213.714 161.516 213.981C161.409 214.242 161.356 214.527 161.356 214.837C161.356 215.141 161.409 215.426 161.516 215.693C161.628 215.954 161.783 216.183 161.98 216.381C162.183 216.573 162.42 216.722 162.692 216.829C162.964 216.935 163.26 216.989 163.58 216.989C163.879 216.989 164.164 216.943 164.436 216.853C164.713 216.757 164.969 216.599 165.204 216.381L165.66 216.989C165.383 217.223 165.057 217.402 164.684 217.525C164.316 217.642 163.935 217.701 163.54 217.701ZM165.66 216.989L164.892 216.885V214.805H165.66V216.989Z" fill="#9CA5A1"/>
<path d="M16.612 176.725C16.612 177.687 16.8527 178.536 17.334 179.271C17.8407 179.98 18.4867 180.626 19.272 181.209C20.0827 181.791 20.9313 182.374 21.818 182.957C22.7807 183.565 23.6927 184.211 24.554 184.895C25.4407 185.553 26.1627 186.326 26.72 187.213C27.3027 188.074 27.594 189.113 27.594 190.329C27.594 191.671 27.2267 192.849 26.492 193.863C25.7827 194.876 24.8073 195.674 23.566 196.257C22.35 196.814 20.9567 197.093 19.386 197.093C18.626 197.093 17.828 197.017 16.992 196.865C16.1813 196.713 15.434 196.523 14.75 196.295C14.0913 196.067 13.61 195.826 13.306 195.573C13.2047 195.497 13.116 195.421 13.04 195.345C12.964 195.243 12.926 195.079 12.926 194.851L12.812 188.809C12.7867 188.682 12.8373 188.619 12.964 188.619C13.116 188.593 13.2047 188.631 13.23 188.733C13.61 189.518 14.028 190.354 14.484 191.241C14.94 192.102 15.4467 192.9 16.004 193.635C16.5867 194.369 17.2327 194.977 17.942 195.459C18.6513 195.915 19.462 196.143 20.374 196.143C20.9567 196.143 21.514 196.041 22.046 195.839C22.578 195.636 23.0087 195.269 23.338 194.737C23.6927 194.205 23.87 193.47 23.87 192.533C23.87 191.342 23.604 190.329 23.072 189.493C22.54 188.631 21.856 187.884 21.02 187.251C20.184 186.592 19.31 185.971 18.398 185.389C17.5113 184.806 16.6627 184.211 15.852 183.603C15.0413 182.969 14.3827 182.26 13.876 181.475C13.3693 180.664 13.116 179.701 13.116 178.587C13.116 177.168 13.5087 176.015 14.294 175.129C15.1047 174.217 16.118 173.545 17.334 173.115C18.5753 172.684 19.8293 172.469 21.096 172.469C22.008 172.469 22.92 172.557 23.832 172.735C24.744 172.887 25.466 173.077 25.998 173.305C26.2513 173.406 26.4033 173.52 26.454 173.647C26.53 173.773 26.568 173.913 26.568 174.065V179.651C26.568 179.727 26.5047 179.79 26.378 179.841C26.2767 179.866 26.2007 179.841 26.15 179.765C25.998 179.461 25.7827 178.967 25.504 178.283C25.2253 177.573 24.858 176.839 24.402 176.079C23.946 175.319 23.3633 174.673 22.654 174.141C21.9447 173.583 21.0833 173.305 20.07 173.305C19.4367 173.305 18.854 173.431 18.322 173.685C17.8153 173.938 17.3973 174.318 17.068 174.825C16.764 175.306 16.612 175.939 16.612 176.725ZM30.8866 196.637C30.836 196.637 30.8106 196.561 30.8106 196.409C30.8106 196.257 30.836 196.181 30.8866 196.181C31.672 196.181 32.204 196.003 32.4826 195.649C32.7866 195.269 32.9386 194.572 32.9386 193.559L32.9766 174.255C32.9766 173.393 32.9006 172.773 32.7486 172.393C32.5966 171.987 32.3053 171.785 31.8746 171.785C31.5453 171.785 31.064 171.924 30.4306 172.203C30.3546 172.228 30.2786 172.165 30.2026 172.013C30.1266 171.861 30.114 171.772 30.1646 171.747L35.7506 169.125C35.8013 169.099 35.852 169.087 35.9026 169.087C36.0293 169.087 36.1686 169.15 36.3206 169.277C36.4726 169.378 36.5486 169.479 36.5486 169.581V193.559C36.5486 194.572 36.688 195.269 36.9666 195.649C37.2453 196.003 37.7773 196.181 38.5626 196.181C38.664 196.181 38.7146 196.257 38.7146 196.409C38.7146 196.561 38.664 196.637 38.5626 196.637C38.0813 196.637 37.4986 196.624 36.8146 196.599C36.156 196.573 35.4593 196.561 34.7246 196.561C33.99 196.561 33.2933 196.573 32.6346 196.599C31.976 196.624 31.3933 196.637 30.8866 196.637ZM48.7306 197.131C47.1346 197.131 45.7539 196.763 44.5886 196.029C43.4233 195.294 42.5239 194.319 41.8906 193.103C41.2573 191.861 40.9406 190.531 40.9406 189.113C40.9406 187.795 41.1939 186.655 41.7006 185.693C42.2073 184.73 42.8786 183.945 43.7146 183.337C44.5506 182.703 45.4626 182.235 46.4506 181.931C47.4386 181.627 48.4139 181.475 49.3766 181.475C50.9979 181.475 52.3786 181.855 53.5186 182.615C54.6839 183.375 55.5706 184.35 56.1786 185.541C56.7866 186.731 57.0906 187.998 57.0906 189.341C57.0906 190.886 56.6979 192.254 55.9126 193.445C55.1526 194.61 54.1393 195.522 52.8726 196.181C51.6059 196.814 50.2253 197.131 48.7306 197.131ZM49.8706 196.333C50.8839 196.333 51.6439 195.839 52.1506 194.851C52.6573 193.863 52.9106 192.469 52.9106 190.671C52.9106 188.821 52.6699 187.276 52.1886 186.035C51.7326 184.793 51.1373 183.856 50.4026 183.223C49.6679 182.589 48.8953 182.273 48.0846 182.273C47.0966 182.273 46.3366 182.716 45.8046 183.603C45.2979 184.489 45.0446 185.857 45.0446 187.707C45.0446 189.429 45.2599 190.949 45.6906 192.267C46.1213 193.559 46.7039 194.559 47.4386 195.269C48.1733 195.978 48.9839 196.333 49.8706 196.333ZM65.3084 197.093C64.7004 197.093 64.0797 196.991 63.4464 196.789C62.8384 196.586 62.3191 196.231 61.8884 195.725C61.4831 195.218 61.2804 194.509 61.2804 193.597V185.161C61.2804 184.629 61.2171 184.211 61.0904 183.907C60.9637 183.603 60.7611 183.387 60.4824 183.261C60.2037 183.134 59.8237 183.071 59.3424 183.071C59.2411 183.071 59.1904 182.957 59.1904 182.729C59.1904 182.501 59.2411 182.387 59.3424 182.387C60.6344 182.336 61.6857 182.057 62.4964 181.551C63.3071 181.019 63.9151 180.246 64.3204 179.233C64.3711 179.131 64.4724 179.081 64.6244 179.081C64.8017 179.081 64.8904 179.131 64.8904 179.233V192.343C64.8904 193.356 65.1437 194.078 65.6504 194.509C66.1824 194.939 66.8284 195.155 67.5884 195.155C68.1711 195.155 68.7157 195.041 69.2224 194.813C69.7544 194.559 70.1977 194.293 70.5524 194.015C70.6284 193.939 70.7171 193.964 70.8184 194.091C70.9451 194.192 70.9577 194.281 70.8564 194.357C69.9191 195.294 69.0071 195.991 68.1204 196.447C67.2591 196.877 66.3217 197.093 65.3084 197.093ZM69.6784 183.907C68.6397 183.679 67.6264 183.527 66.6384 183.451C65.6757 183.349 64.6497 183.299 63.5604 183.299V182.311C64.5991 182.311 65.6124 182.273 66.6004 182.197C67.6137 182.121 68.6904 182.032 69.8304 181.931C69.8811 181.931 69.9317 182.032 69.9824 182.235C70.0584 182.412 70.0964 182.615 70.0964 182.843C70.0964 183.096 70.0457 183.349 69.9444 183.603C69.8684 183.831 69.7797 183.932 69.6784 183.907ZM72.374 196.637C72.298 196.637 72.26 196.561 72.26 196.409C72.26 196.257 72.298 196.181 72.374 196.181C73.2354 196.181 73.8687 196.117 74.274 195.991C74.7047 195.864 74.9834 195.611 75.11 195.231C75.262 194.851 75.338 194.293 75.338 193.559V175.965C75.338 175.23 75.2747 174.685 75.148 174.331C75.0214 173.951 74.768 173.697 74.388 173.571C74.008 173.419 73.4254 173.343 72.64 173.343C72.564 173.343 72.526 173.267 72.526 173.115C72.526 172.963 72.564 172.887 72.64 172.887H88.752C89.0054 172.887 89.132 173.001 89.132 173.229L89.208 178.283C89.208 178.333 89.1447 178.371 89.018 178.397C88.8914 178.422 88.8027 178.397 88.752 178.321C88.3467 176.826 87.6627 175.737 86.7 175.053C85.7374 174.343 84.4707 173.989 82.9 173.989H81.76C81 173.989 80.4427 174.153 80.088 174.483C79.7334 174.812 79.556 175.319 79.556 176.003V193.407C79.556 194.167 79.6574 194.749 79.86 195.155C80.0627 195.535 80.4554 195.801 81.038 195.953C81.6207 196.105 82.482 196.181 83.622 196.181C83.6727 196.181 83.698 196.257 83.698 196.409C83.698 196.561 83.6727 196.637 83.622 196.637C82.7607 196.637 81.8234 196.624 80.81 196.599C79.822 196.573 78.6567 196.561 77.314 196.561C76.402 196.561 75.5154 196.573 74.654 196.599C73.7927 196.624 73.0327 196.637 72.374 196.637ZM86.852 188.581C86.852 187.567 86.4594 186.769 85.674 186.187C84.8887 185.579 83.7487 185.275 82.254 185.275H77.542V184.211H82.292C83.7867 184.211 84.914 183.945 85.674 183.413C86.434 182.881 86.814 182.171 86.814 181.285C86.814 181.234 86.89 181.209 87.042 181.209C87.194 181.209 87.27 181.234 87.27 181.285C87.27 182.146 87.2574 182.817 87.232 183.299C87.232 183.755 87.232 184.236 87.232 184.743C87.232 185.376 87.2447 185.997 87.27 186.605C87.2954 187.213 87.308 187.871 87.308 188.581C87.308 188.657 87.232 188.695 87.08 188.695C86.928 188.695 86.852 188.657 86.852 188.581ZM99.2365 197.131C97.6405 197.131 96.2598 196.763 95.0945 196.029C93.9291 195.294 93.0298 194.319 92.3965 193.103C91.7631 191.861 91.4465 190.531 91.4465 189.113C91.4465 187.795 91.6998 186.655 92.2065 185.693C92.7131 184.73 93.3845 183.945 94.2205 183.337C95.0565 182.703 95.9685 182.235 96.9565 181.931C97.9445 181.627 98.9198 181.475 99.8825 181.475C101.504 181.475 102.884 181.855 104.024 182.615C105.19 183.375 106.076 184.35 106.684 185.541C107.292 186.731 107.596 187.998 107.596 189.341C107.596 190.886 107.204 192.254 106.418 193.445C105.658 194.61 104.645 195.522 103.378 196.181C102.112 196.814 100.731 197.131 99.2365 197.131ZM100.376 196.333C101.39 196.333 102.15 195.839 102.656 194.851C103.163 193.863 103.416 192.469 103.416 190.671C103.416 188.821 103.176 187.276 102.694 186.035C102.238 184.793 101.643 183.856 100.908 183.223C100.174 182.589 99.4011 182.273 98.5905 182.273C97.6025 182.273 96.8425 182.716 96.3105 183.603C95.8038 184.489 95.5505 185.857 95.5505 187.707C95.5505 189.429 95.7658 190.949 96.1965 192.267C96.6271 193.559 97.2098 194.559 97.9445 195.269C98.6791 195.978 99.4898 196.333 100.376 196.333ZM114.94 186.339L114.636 185.845C115.624 184.705 116.46 183.831 117.144 183.223C117.828 182.615 118.411 182.197 118.892 181.969C119.374 181.715 119.804 181.589 120.184 181.589C120.716 181.589 121.261 181.791 121.818 182.197C122.401 182.577 122.692 183.083 122.692 183.717C122.692 184.249 122.528 184.692 122.198 185.047C121.894 185.376 121.464 185.541 120.906 185.541C120.374 185.541 119.969 185.401 119.69 185.123C119.437 184.844 119.196 184.578 118.968 184.325C118.766 184.046 118.462 183.907 118.056 183.907C117.879 183.907 117.676 183.97 117.448 184.097C117.246 184.198 116.942 184.426 116.536 184.781C116.156 185.11 115.624 185.629 114.94 186.339ZM110.304 196.637C110.228 196.637 110.19 196.561 110.19 196.409C110.19 196.257 110.228 196.181 110.304 196.181C111.09 196.181 111.622 196.003 111.9 195.649C112.179 195.269 112.318 194.572 112.318 193.559V186.415C112.318 185.629 112.23 185.059 112.052 184.705C111.875 184.325 111.571 184.135 111.14 184.135C110.912 184.135 110.646 184.185 110.342 184.287C110.038 184.363 109.696 184.489 109.316 184.667C109.215 184.717 109.139 184.667 109.088 184.515C109.038 184.363 109.038 184.274 109.088 184.249L114.37 181.665C114.522 181.614 114.611 181.589 114.636 181.589C114.915 181.589 115.194 181.893 115.472 182.501C115.751 183.109 115.89 183.983 115.89 185.123V193.559C115.89 194.217 115.992 194.749 116.194 195.155C116.397 195.535 116.739 195.801 117.22 195.953C117.727 196.105 118.411 196.181 119.272 196.181C119.374 196.181 119.424 196.257 119.424 196.409C119.424 196.561 119.374 196.637 119.272 196.637C118.588 196.637 117.803 196.624 116.916 196.599C116.055 196.573 115.118 196.561 114.104 196.561C113.395 196.561 112.711 196.573 112.052 196.599C111.394 196.624 110.811 196.637 110.304 196.637ZM129.691 207.353C127.943 207.353 126.512 206.947 125.397 206.137C124.283 205.351 123.725 204.313 123.725 203.021C123.725 202.21 124.029 201.349 124.637 200.437C125.271 199.525 126.474 198.524 128.247 197.435L128.627 197.853C128.323 198.055 128.057 198.296 127.829 198.575C127.601 198.879 127.424 199.233 127.297 199.639C127.196 200.044 127.145 200.513 127.145 201.045C127.145 202.185 127.373 203.122 127.829 203.857C128.311 204.617 128.919 205.187 129.653 205.567C130.388 205.947 131.161 206.137 131.971 206.137C133.238 206.137 134.251 205.731 135.011 204.921C135.797 204.11 136.189 203.008 136.189 201.615C136.189 200.475 135.936 199.664 135.429 199.183C134.948 198.701 134.277 198.397 133.415 198.271C132.554 198.169 131.553 198.119 130.413 198.119C129.552 198.093 128.691 198.017 127.829 197.891C126.968 197.764 126.246 197.485 125.663 197.055C125.106 196.649 124.827 196.003 124.827 195.117C124.827 194.23 125.131 193.369 125.739 192.533C126.373 191.697 127.373 190.949 128.741 190.291L129.083 190.519C128.577 190.823 128.197 191.165 127.943 191.545C127.69 191.899 127.563 192.343 127.563 192.875C127.563 193.584 127.753 194.091 128.133 194.395C128.539 194.699 129.096 194.889 129.805 194.965C130.515 195.015 131.338 195.053 132.275 195.079C133.137 195.079 133.973 195.117 134.783 195.193C135.619 195.243 136.379 195.395 137.063 195.649C137.747 195.902 138.292 196.307 138.697 196.865C139.103 197.422 139.305 198.195 139.305 199.183C139.305 200.272 139.052 201.298 138.545 202.261C138.039 203.249 137.342 204.123 136.455 204.883C135.569 205.643 134.543 206.238 133.377 206.669C132.212 207.125 130.983 207.353 129.691 207.353ZM130.337 191.583C129.121 191.583 128.07 191.329 127.183 190.823C126.297 190.316 125.613 189.67 125.131 188.885C124.65 188.099 124.409 187.289 124.409 186.453C124.409 185.389 124.751 184.502 125.435 183.793C126.119 183.083 126.968 182.564 127.981 182.235C129.02 181.88 130.046 181.703 131.059 181.703C132.225 181.703 133.251 181.918 134.137 182.349C135.024 182.754 135.721 183.311 136.227 184.021C136.759 184.73 137.025 185.541 137.025 186.453C137.025 187.517 136.683 188.429 135.999 189.189C135.341 189.949 134.492 190.544 133.453 190.975C132.44 191.38 131.401 191.583 130.337 191.583ZM131.325 190.899C131.832 190.899 132.288 190.645 132.693 190.139C133.099 189.632 133.301 188.758 133.301 187.517C133.301 186.351 133.111 185.401 132.731 184.667C132.377 183.907 131.921 183.349 131.363 182.995C130.831 182.615 130.312 182.425 129.805 182.425C129.197 182.425 128.754 182.678 128.475 183.185C128.222 183.691 128.095 184.401 128.095 185.313C128.095 186.402 128.247 187.365 128.551 188.201C128.881 189.037 129.286 189.695 129.767 190.177C130.274 190.658 130.793 190.899 131.325 190.899ZM134.251 184.743L134.327 183.527C135.138 182.893 135.923 182.412 136.683 182.083C137.469 181.753 138.33 181.589 139.267 181.589C139.394 181.589 139.47 181.69 139.495 181.893C139.546 182.095 139.571 182.349 139.571 182.653C139.571 183.007 139.521 183.4 139.419 183.831C139.318 184.261 139.217 184.439 139.115 184.363C138.659 184.16 138.191 184.008 137.709 183.907C137.228 183.78 136.759 183.717 136.303 183.717C135.999 183.717 135.695 183.742 135.391 183.793C135.113 183.818 134.809 183.894 134.479 184.021L134.251 184.743ZM148.405 197.093C146.758 197.093 145.352 196.751 144.187 196.067C143.047 195.383 142.173 194.483 141.565 193.369C140.982 192.229 140.691 191.013 140.691 189.721C140.691 188.226 141.058 186.871 141.793 185.655C142.527 184.439 143.541 183.463 144.833 182.729C146.125 181.994 147.607 181.627 149.279 181.627C150.773 181.627 151.964 181.969 152.851 182.653C153.763 183.337 154.219 184.451 154.219 185.997C154.219 186.326 154.193 186.605 154.143 186.833C154.092 187.061 153.978 187.175 153.801 187.175H150.153C150.203 185.731 150.064 184.578 149.735 183.717C149.405 182.83 148.772 182.387 147.835 182.387C146.821 182.387 146.011 182.906 145.403 183.945C144.82 184.983 144.529 186.364 144.529 188.087C144.529 189.556 144.757 190.823 145.213 191.887C145.669 192.951 146.34 193.774 147.227 194.357C148.113 194.939 149.203 195.231 150.495 195.231C151.255 195.231 151.888 195.142 152.395 194.965C152.927 194.762 153.509 194.496 154.143 194.167C154.193 194.116 154.257 194.141 154.333 194.243C154.434 194.344 154.459 194.433 154.409 194.509C153.471 195.446 152.509 196.117 151.521 196.523C150.558 196.903 149.519 197.093 148.405 197.093ZM143.199 187.213L143.161 186.491L151.483 186.339V187.175L143.199 187.213Z" fill="#EEF3F0"/>
</svg>
